<?xml version="1.0" encoding="utf-8"?>
<!-- Generator: Adobe Illustrator 23.1.0, SVG Export Plug-In . SVG Version: 6.00 Build 0)  -->
<svg version="1.1" id="Calque_1" xmlns="http://www.w3.org/2000/svg" xmlns:xlink="http://www.w3.org/1999/xlink" x="0px" y="0px"
	 viewBox="0 0 833.4 189.6" style="enable-background:new 0 0 833.4 189.6;" xml:space="preserve">
<style type="text/css">
	.st0{fill:#6A7555;}
	.st1{fill:#3D3D3D;}
	.st2{fill:#E3CD6E;}
</style>
<g>
	<path classname="st0" d="M741.9,114.7c2.6,2.2,5.1,4.5,7.9,6.5c14.1,9.9,28.3,19.7,42.5,29.6c0.8,0.6,1.5,1.2,3.1,2.5
		c-57,0-112.9,0-170.3,0c-0.1-19.5-0.2-39.1-0.2-58.6c0-19.4,0-38.8,0-59.6c5,3.4,9.1,6.1,13.1,8.8c20.5,14.1,41,28.2,61.5,42.3
		c6.7,4.6,13.3,9.3,20,13.9c1,0.7,2.3,1,3.5,1.6c0,0-0.2,0-0.2,0c0.4,0,0.8-0.1,1.2-0.1c5.3,4,10.5,8,15.8,12c0.7,0.4,1.4,0.8,2,1.1
		L741.9,114.7z"/>
</g>
<g>
	<path classname="st1" d="M833.4,189.6c-278,0-555.6,0-833.4,0C0,126.4,0,63.3,0,0c277.7,0,555.4,0,833.4,0
		C833.4,63.1,833.4,126.2,833.4,189.6z M723.1,101.8c-1.2-0.5-2.5-0.8-3.5-1.6c-6.7-4.6-13.3-9.3-20-13.9C679,72.1,658.5,58,638,44
		c-4-2.8-8.1-5.4-13.1-8.8c0,20.7,0,40.1,0,59.6c0,19.6,0.1,39.1,0.2,58.6c57.4,0,113.3,0,170.3,0c-1.6-1.3-2.3-2-3.1-2.5
		c-14.2-9.9-28.4-19.7-42.5-29.6c-2.8-2-5.3-4.3-7.9-6.5c1.3,0.2,2.6,0.3,3.9,0.6c23.1,5.7,44.8-7.6,50.2-30.8
		c3.7-16.1-3.4-33.6-17.3-42.7c-13.6-8.9-32.9-8.9-45.3,0c-14.9,10.7-21.5,27.6-16.8,44.1C718.2,91.3,720.9,96.5,723.1,101.8z
		 M7.7,181.8c0,0,4.1,0,6.2,0c189.8,0,379.6,0,569.4,0c1.8,0,3.5,0,5.5,0c0-58.6,0-116.5,0-174.7c-1.9-0.1-3.5-0.2-5.2-0.2
		c-186,0-371.9,0-557.9,0C19.8,6.9,14,7,8.1,7"/>
	<g>
		<path classname="st1" d="M244,148.8c-14-36.2-28-72.1-42.1-108.6c14.2,0,27.5,0,41.5,0c6,21.4,12.1,42.9,17.4,61.7
			c5.3-18.7,11.4-40.2,17.5-61.7c41.3,0,82.1,0,123.7,0c6,21,12,42.2,17.5,61.5c5.4-19,11.4-40.1,17.5-61.4c38.3,0,76.3,0,114.6,0
			c0,9.9,0,19.5,0,29.6c-11,0-21.9,0-33.1,0c0,3.6,0,6.7,0,10.2c10,0,19.8,0,29.9,0c0,9.6,0,18.8,0,28.6c-9.9,0-19.6,0-29.7,0
			c0,3.6,0,6.7,0,10.4c11.2,0,22.3,0,33.8,0c0,10.1,0,19.7,0,29.6c-24.4,0-49,0-74.1,0c0-34.6,0-69.3,0-104
			c-0.5-0.1-0.9-0.2-1.4-0.3c-13.5,34.8-27.1,69.5-40.7,104.5c-11,0-22.1,0-33.7,0c-13.9-35.7-27.7-71.5-41.6-107.2
			c-0.3,0.1-0.6,0.1-0.9,0.2c0,35.5,0,71,0,106.9c-13.4,0-26.3,0-39.8,0c0-35.5,0-71,0-106.4c-0.4-0.1-0.7-0.1-1.1-0.2
			c-13.8,35.6-27.6,71.1-41.5,106.8C266.5,148.8,255.6,148.8,244,148.8z"/>
		<path classname="st1" d="M156.9,38.4c21.7,0.5,40.2,7.9,52.1,27c9.1,14.6,10.6,30.6,5.6,47c-6,19.7-20.1,31.1-39.3,36
			c-24.9,6.2-47.8,1.9-65.8-17.7c-5.1-5.6-10.6-12.5-11.8-19.5c-1.8-11.2-1.9-23,1.8-34.5C107.6,51.2,134.1,37.8,156.9,38.4z
			 M136.7,95.4c-0.1,12.2,8.1,20.9,19.8,21.1c12.2,0.1,20.5-8.3,20.6-20.8c0.1-12.9-7.7-21.1-20-21.1
			C144.6,74.5,136.9,82.4,136.7,95.4z"/>
		<path classname="st1" d="M38.3,110.7c2.6,1.9,4.1,3.1,5.6,4.2c4.9,3.4,9.8,1.7,11-4.2c0.6-2.9,0.7-6,0.7-8.9c0.1-20.3,0-40.6,0-61.4
			c12.8,0,25.4,0,38.2,0c0.1,1,0.3,2,0.3,2.9c0,23.8,0.1,47.7,0,71.5c-0.1,13.5-5.5,24.4-17.5,31.1c-12.5,7-25.4,6.5-38.2,0.8
			C38.3,134.9,38.3,123.6,38.3,110.7z"/>
	</g>
</g>
<g>
	<path classname="st2" d="M8.1,7c0,0,11.7-0.1,17.5-0.1c186,0,371.9,0,557.9,0c1.6,0,3.3,0.1,5.2,0.2c0,58.2,0,116.1,0,174.7
		c-1.9,0-3.7,0-5.5,0c-189.8,0-379.6,0-569.4,0c-2.1,0-6.2,0-6.2,0 M244,148.8c11.5,0,22.5,0,33.7,0c13.9-35.7,27.7-71.3,41.5-106.8
		c0.4,0.1,0.7,0.1,1.1,0.2c0,35.5,0,71,0,106.4c13.5,0,26.4,0,39.8,0c0-35.9,0-71.4,0-106.9c0.3-0.1,0.6-0.1,0.9-0.2
		c13.9,35.8,27.8,71.5,41.6,107.2c11.5,0,22.6,0,33.7,0c13.6-35,27.1-69.8,40.7-104.5c0.5,0.1,0.9,0.2,1.4,0.3c0,34.7,0,69.4,0,104
		c25.1,0,49.7,0,74.1,0c0-10,0-19.5,0-29.6c-11.5,0-22.6,0-33.8,0c0-3.6,0-6.7,0-10.4c10.1,0,19.8,0,29.7,0c0-9.8,0-18.9,0-28.6
		c-10.2,0-19.9,0-29.9,0c0-3.5,0-6.6,0-10.2c11.2,0,22.1,0,33.1,0c0-10.1,0-19.7,0-29.6c-38.3,0-76.4,0-114.6,0
		c-6.1,21.3-12.1,42.4-17.5,61.4C414,82.4,408,61.2,402,40.2c-41.6,0-82.4,0-123.7,0c-6.1,21.5-12.2,43-17.5,61.7
		c-5.3-18.8-11.4-40.3-17.4-61.7c-14,0-27.3,0-41.5,0C216.1,76.7,230,112.7,244,148.8z M156.9,38.4c-22.8-0.7-49.3,12.8-57.4,38.3
		c-3.7,11.5-3.6,23.3-1.8,34.5c1.1,7,6.7,13.9,11.8,19.5c18,19.6,40.8,23.9,65.8,17.7c19.2-4.8,33.4-16.2,39.3-36
		c5-16.4,3.5-32.4-5.6-47C197,46.3,178.6,39,156.9,38.4z M38.3,110.7c0,12.9,0,24.2,0,35.9c12.8,5.7,25.7,6.3,38.2-0.8
		c12-6.7,17.4-17.6,17.5-31.1c0.2-23.8,0.1-47.7,0-71.5c0-1-0.2-1.9-0.3-2.9c-12.8,0-25.4,0-38.2,0c0,20.7,0,41,0,61.4
		c0,3-0.1,6-0.7,8.9c-1.2,5.8-6.1,7.6-11,4.2C42.4,113.8,41,112.7,38.3,110.7z"/>
	<path classname="st2" d="M739.9,113.7c-5.3-4-10.5-8-15.8-12c-0.4,0-0.8,0.1-1.2,0.1c0,0,0.2,0,0.2,0c-2.2-5.3-4.8-10.5-6.4-15.9
		c-4.7-16.5,1.9-33.4,16.8-44.1c12.4-8.9,31.7-8.9,45.3,0c13.9,9.1,21,26.6,17.3,42.7c-5.3,23.2-27,36.5-50.2,30.8
		c-1.3-0.3-2.6-0.4-3.9-0.6c0,0,0,0.1,0,0.1C741.2,114.5,740.6,114.1,739.9,113.7z"/>
	<path classname="st2" d="M136.7,95.4c0.1-13,7.9-20.9,20.4-20.8c12.3,0.1,20.1,8.2,20,21.1c0,12.5-8.4,20.9-20.6,20.8
		C144.8,116.3,136.6,107.6,136.7,95.4z"/>
</g>
</svg>
