<?xml version="1.0" encoding="utf-8"?>
<!-- Generator: Adobe Illustrator 23.1.0, SVG Export Plug-In . SVG Version: 6.00 Build 0)  -->
<svg version="1.1" id="Calque_1" xmlns="http://www.w3.org/2000/svg" xmlns:xlink="http://www.w3.org/1999/xlink" x="0px" y="0px"
	 viewBox="0 0 454 433.7" style="enable-background:new 0 0 454 433.7;" xml:space="preserve">
<style type="text/css">
	.st0{fill:#FDB615;}
</style>
<path class="st0" d="M227.1,371.4c-4.5,1.5-8.9,2.4-12.8,4.4c-34.6,18-69.2,35.9-103.5,54.5c-14.4,7.8-26.5,1.1-29.5-7.9
	c-1.4-4.2-1.6-9.3-0.9-13.7c4.7-29.1,9.9-58.1,14.9-87.2c1.7-10,3.4-20,5-30.1c1.4-9.1-1.5-16.7-8.1-23.1C64,241,36,213.4,7.7,186.1
	c-6.5-6.3-9.2-13.5-6.3-22.1c2.8-8.5,9.6-11.7,18-12.9c38.9-5.6,77.8-11.2,116.7-16.9c9.4-1.4,16.2-6.4,20.5-15
	c17-34.5,34-69.1,51.2-103.5c2.2-4.4,4.9-9,8.7-11.9c9.7-7.3,22.6-3.2,28.4,8.3c8.1,16.2,16.1,32.6,24.1,48.9
	c9.4,19.1,18.9,38.2,28.3,57.4c4.6,9.5,12.1,14.6,22.5,16.1c38.4,5.5,76.8,11.1,115.2,16.7c7.7,1.1,14.1,3.9,17.4,11.5
	c3.4,7.9,1.7,16-5.2,22.8c-17.5,17.1-35.1,34.1-52.7,51.2c-10.1,9.9-19.9,20.2-30.4,29.6c-9.3,8.4-11.7,18.2-9.6,30.2
	c6.7,37.4,13.1,74.8,19.5,112.3c2.4,13.8-3.9,23.9-16.2,24.8c-4.3,0.3-9.3-1.1-13.3-3.1c-20.9-10.6-41.6-21.7-62.4-32.7
	c-14.2-7.4-28.3-15-42.5-22.2C235.7,373.6,231.4,372.8,227.1,371.4z"/>
</svg>
